<svg xmlns="http://www.w3.org/2000/svg" xmlns:xlink="http://www.w3.org/1999/xlink" viewBox="0 0 24 24">
	<defs>
		<clipPath id="clip-path">
			<rect width="24" height="24" fill="none" />
		</clipPath>
	</defs>
	<title>Asset 2</title>
	<g id="Layer_2" data-name="Layer 2">
		<g id="Layer_1-2" data-name="Layer 1">
			<g clip-path="url(#clip-path)">
				<rect x="11" y="0.5" width="2" height="2" fill="none" stroke="currentColor" stroke-linecap="round"
					stroke-linejoin="round" />
				<rect x="21.5" y="10.5" width="2" height="2" fill="none" stroke="currentColor" stroke-linecap="round"
					stroke-linejoin="round" />
				<rect x="0.5" y="10.5" width="2" height="2" fill="none" stroke="currentColor" stroke-linecap="round"
					stroke-linejoin="round" />
				<path d="M1.61,10.5a10.52,10.52,0,0,1,9.39-9" fill="none" stroke="currentColor" stroke-linecap="round"
					stroke-linejoin="round" />
				<path d="M13,1.54a10.52,10.52,0,0,1,9.39,9" fill="none" stroke="currentColor" stroke-linecap="round"
					stroke-linejoin="round" />
				<circle cx="1.5" cy="1.5" r="1" fill="none" stroke="currentColor" stroke-linecap="round"
					stroke-linejoin="round" />
				<line x1="2.5" y1="1.5" x2="11" y2="1.5" fill="none" stroke="currentColor" stroke-linecap="round"
					stroke-linejoin="round" />
				<circle cx="22.5" cy="1.5" r="1" fill="none" stroke="currentColor" stroke-linecap="round"
					stroke-linejoin="round" />
				<line x1="21.5" y1="1.5" x2="13" y2="1.5" fill="none" stroke="currentColor" stroke-linecap="round"
					stroke-linejoin="round" />
				<path d="M14.5,18.5a3,3,0,0,1,3-3L12,4.5l-5.5,11a3,3,0,0,1,3,3" fill="none" stroke="currentColor"
					stroke-linecap="round" stroke-linejoin="round" />
				<circle cx="12" cy="13" r="1.5" fill="none" stroke="currentColor" stroke-linecap="round"
					stroke-linejoin="round" />
				<path d="M17.5,23.5H6.5l.84-4.2a1,1,0,0,1,1-.8h7.36a1,1,0,0,1,1,.8Z" fill="none" stroke="currentColor"
					stroke-linecap="round" stroke-linejoin="round" />
				<line x1="17.1" y1="21.5" x2="6.9" y2="21.5" fill="none" stroke="currentColor" stroke-linecap="round"
					stroke-linejoin="round" />
			</g>
		</g>
	</g>
</svg>