<svg xmlns="http://www.w3.org/2000/svg" xmlns:xlink="http://www.w3.org/1999/xlink" viewBox="0 0 24 21">
	<defs>
		<clipPath id="clip-path">
			<rect width="24" height="21" fill="none" />
		</clipPath>
	</defs>
	<title>Asset 4</title>
	<g id="Layer_2" data-name="Layer 2">
		<g id="Layer_1-2" data-name="Layer 1">
			<g clip-path="url(#clip-path)">
				<path
					d="M20.5,4.5h-4L15.88,2A2,2,0,0,0,13.94.5H10.06A2,2,0,0,0,8.12,2L7.5,4.5h-4a3,3,0,0,0-3,3v12a1,1,0,0,0,1,1h21a1,1,0,0,0,1-1V7.5A3,3,0,0,0,20.5,4.5Z"
					fill="none" stroke="currentColor" stroke-linecap="round" stroke-linejoin="round" />
				<rect x="3.5" y="2.5" width="2" height="2" fill="none" stroke="currentColor" stroke-linecap="round"
					stroke-linejoin="round" />
				<path d="M13.5,4.5h-3a1,1,0,0,1,0-2h3a1,1,0,0,1,0,2Z" fill="none" stroke="currentColor"
					stroke-linecap="round" stroke-linejoin="round" />
				<circle cx="12" cy="13" r="5.5" fill="none" stroke="currentColor" stroke-linecap="round"
					stroke-linejoin="round" />
				<circle cx="12" cy="13" r="3.5" fill="none" stroke="currentColor" stroke-linecap="round"
					stroke-linejoin="round" />
				<circle cx="20.5" cy="7.5" r="1" fill="none" stroke="currentColor" stroke-linecap="round"
					stroke-linejoin="round" />
				<path d="M3.5,20.5V9.5a1,1,0,0,0-1-1H.5" fill="none" stroke="currentColor" stroke-linecap="round"
					stroke-linejoin="round" />
			</g>
		</g>
	</g>
</svg>